<?xml version="1.0" encoding="iso-8859-1"?>
<!-- Generator: Adobe Illustrator 19.0.0, SVG Export Plug-In . SVG Version: 6.00 Build 0)  -->
<svg version="1.1" id="Capa_1" xmlns="http://www.w3.org/2000/svg" xmlns:xlink="http://www.w3.org/1999/xlink" x="0px" y="0px"
	 viewBox="0 0 327.2 327.2" style="enable-background:new 0 0 327.2 327.2;" xml:space="preserve">
<g>
	<g>
		<path d="M162.881,0c-37.6,0-67.2,71.6-67.2,163.6s29.6,163.6,67.2,163.6s67.2-71.6,67.2-163.6C230.081,72,200.481,0,162.881,0z
			 M162.881,313.6c-25.2,0-53.2-61.6-53.2-150s28-150,53.2-150s53.2,61.6,53.2,150S188.081,313.6,162.881,313.6z"/>
	</g>
</g>
<g>
	<g>
		<path d="M303.281,79.6c-5.2-8.8-16.8-18.8-44-18.8c-35.2,0-84,16.8-131.2,44.8c-36.4,22-68,48-88,73.6c-21.2,27.2-28,51.6-18,68
			c5.2,8.8,16.8,18.8,44,18.8c35.2,0,84-16.8,131.2-44.8c36.4-22,68-48,88-73.6C306.481,120.4,313.281,96,303.281,79.6z
			 M274.081,139.2c-19.2,24.4-49.2,49.2-84.4,70.4c-45.2,26.8-91.2,42.8-124,42.8c-11.2,0-26-2.4-32-12c-6.4-10.8-0.4-30,17.2-52
			c19.2-24.4,49.2-49.2,84.4-70.4c45.2-26.8,91.2-42.8,124-42.8c11.6,0,26.4,2,32,12C297.681,98,291.681,117.2,274.081,139.2z"/>
	</g>
</g>
<g>
	<g>
		<path d="M285.681,176.8c-20.8-24.8-52.4-50.4-89.6-71.6c-46.4-26.4-94.8-42-129.6-42c-28.8,0-40.8,10.8-46,19.6
			c-9.6,16.8-2.4,40.8,19.6,67.6c20.8,24.8,52.4,50.4,89.6,71.6c46.4,26.4,94.8,42,129.6,42c28.8,0,40.8-10.4,46-19.6
			C314.881,227.6,307.681,203.6,285.681,176.8z M292.881,238c-4.8,8-16.8,12.4-34,12.4c-32.4,0-78.4-15.2-122.8-40.4
			c-35.6-20-66-44.4-85.6-68.4c-17.6-22-24.4-40.8-18-52c4.8-8,16.8-12.4,34-12.4c32.4,0,78.4,14.8,122.8,40.4
			c35.6,20,66,44.4,85.6,68.4C292.481,208,299.281,226.8,292.881,238z"/>
	</g>
</g>
<g>
	<g>
		<path d="M162.881,133.6c-16.8,0-30,13.6-30,30c0,16.8,13.6,30,30,30c16.8,0,30-13.6,30-30
			C192.881,147.2,179.281,133.6,162.881,133.6z"/>
	</g>
</g>
<g>
	<g>
		<circle cx="68.881" cy="70" r="22.4"/>
	</g>
</g>
<g>
	<g>
		<circle cx="288.481" cy="131.6" r="22.4"/>
	</g>
</g>
<g>
</g>
<g>
</g>
<g>
</g>
<g>
</g>
<g>
</g>
<g>
</g>
<g>
</g>
<g>
</g>
<g>
</g>
<g>
</g>
<g>
</g>
<g>
</g>
<g>
</g>
<g>
</g>
<g>
</g>
</svg>
